<svg width="120" height="120" viewBox="0 0 120 120" fill="none" xmlns="http://www.w3.org/2000/svg">
<style>
  #plate-outer,
  #plate-inner {
    fill: black;
  }
  @media (prefers-color-scheme: dark) {
    #plate-outer,
    #plate-inner {
      fill: white;
    }
  }
</style>
<path fill-rule="evenodd" clip-rule="evenodd" d="M53.1429 24.5714C39.1542 24.5714 24.5714 39.1542 24.5714 53.1429V66.8571C24.5714 80.8459 39.1542 95.4286 53.1429 95.4286H66.8571C80.8459 95.4286 95.4286 80.8458 95.4286 66.8571V53.1429C95.4286 39.1542 80.8458 24.5714 66.8571 24.5714H53.1429Z" id="plate-inner" />
<path fill-rule="evenodd" clip-rule="evenodd" d="M0 51.4286C0 23.0254 23.0254 0 51.4286 0H68.5714C96.9746 0 120 23.0254 120 51.4286V68.5714C120 96.9746 96.9746 120 68.5714 120H51.4286C23.0254 120 0 96.9746 0 68.5714V51.4286ZM13.7143 53.1429C13.7143 31.3671 31.3671 13.7143 53.1429 13.7143H66.8571C88.6329 13.7143 106.286 31.3671 106.286 53.1429V66.8571C106.286 88.6329 88.6329 106.286 66.8571 106.286H53.1429C31.3671 106.286 13.7143 88.6329 13.7143 66.8571V53.1429Z" id="plate-outer" />
</svg>
